<svg xmlns="http://www.w3.org/2000/svg" xmlns:xlink="http://www.w3.org/1999/xlink" width="1080" zoomAndPan="magnify" viewBox="0 0 810 1012.49997" height="1350" preserveAspectRatio="xMidYMid meet" version="1.0"><defs><g/><clipPath id="1ce7fd3e28"><path d="M 0.199219 0 L 809.800781 0 L 809.800781 1012 L 0.199219 1012 Z M 0.199219 0 " clip-rule="nonzero"/></clipPath><clipPath id="2228acb0c7"><path d="M 235.582031 202.554688 L 559.421875 202.554688 L 559.421875 526.394531 L 235.582031 526.394531 Z M 235.582031 202.554688 " clip-rule="nonzero"/></clipPath><clipPath id="feedd808be"><path d="M 207 184 L 588.664062 184 L 588.664062 565.109375 L 207 565.109375 Z M 207 184 " clip-rule="nonzero"/></clipPath><clipPath id="ae2e5ed1df"><path d="M 318 164.058594 L 381 164.058594 L 381 231 L 318 231 Z M 318 164.058594 " clip-rule="nonzero"/></clipPath><clipPath id="f4b3825868"><rect x="0" width="347" y="0" height="89"/></clipPath></defs><g clip-path="url(#1ce7fd3e28)"><path fill="#ffffff" d="M 0.199219 0 L 809.800781 0 L 809.800781 1012 L 0.199219 1012 Z M 0.199219 0 " fill-opacity="1" fill-rule="nonzero"/><path fill="#f6f6f6" d="M 0.199219 0 L 809.800781 0 L 809.800781 1012 L 0.199219 1012 Z M 0.199219 0 " fill-opacity="1" fill-rule="nonzero"/></g><g clip-path="url(#2228acb0c7)"><path fill="#000000" d="M 559.398438 364.464844 C 437.96875 386.816406 419.84375 404.941406 397.492188 526.371094 C 375.136719 404.941406 357.015625 386.816406 235.582031 364.464844 C 357.015625 342.109375 375.136719 323.988281 397.492188 202.554688 C 419.84375 323.988281 437.96875 342.109375 559.398438 364.464844 Z M 559.398438 364.464844 " fill-opacity="1" fill-rule="nonzero"/></g><g clip-path="url(#feedd808be)"><path fill="#000000" d="M 418.554688 189.785156 L 430.867188 191.492188 C 435.8125 192.160156 440.695312 193.152344 445.511719 194.460938 C 448.347656 195.222656 451.519531 195.6875 454.78125 196.835938 L 464.980469 200.269531 C 482.265625 206.601562 498.296875 215.261719 513.074219 226.238281 C 522.617188 233.386719 531.386719 241.378906 539.386719 250.21875 C 547.386719 259.058594 554.46875 268.582031 560.632812 278.789062 C 564.292969 284.828125 567.601562 291.054688 570.566406 297.464844 C 573.527344 303.871094 576.121094 310.429688 578.351562 317.128906 C 580.582031 323.828125 582.429688 330.632812 583.894531 337.539062 C 585.363281 344.449219 586.441406 351.414062 587.128906 358.445312 C 587.332031 362.152344 587.554688 365.992188 587.757812 369.796875 C 587.757812 371.652344 588.054688 373.507812 588 375.640625 L 587.757812 381.351562 C 587.589844 385.15625 587.441406 388.996094 587.277344 392.855469 C 587.109375 396.710938 586.21875 400.664062 585.699219 404.613281 C 584.882812 412.589844 582.585938 420.253906 580.695312 428.136719 C 580.222656 430.117188 579.605469 432.054688 578.839844 433.941406 L 576.78125 439.691406 L 574.722656 445.480469 L 573.667969 448.375 L 572.351562 451.175781 C 570.59375 454.886719 568.828125 458.59375 567.046875 462.304688 C 566.203125 464.238281 565.210938 466.089844 564.082031 467.871094 L 560.875 473.269531 C 556.871094 480.6875 551.492188 487.21875 546.523438 494.117188 C 543.871094 497.421875 540.960938 500.5 538.085938 503.726562 L 533.804688 508.515625 L 529.078125 512.800781 C 525.886719 515.691406 522.808594 518.734375 519.492188 521.5 L 509.144531 529.492188 C 494.925781 539.382812 479.480469 548.246094 462.792969 553.851562 L 456.601562 556.167969 L 450.203125 557.894531 C 445.9375 558.988281 441.675781 560.25 437.375 561.214844 C 428.621094 562.476562 419.925781 564.480469 411.046875 564.589844 L 404.390625 564.980469 L 401.070312 565.164062 L 397.566406 565.164062 L 384.585938 564.609375 C 380.152344 564.378906 375.746094 563.886719 371.367188 563.125 L 364.785156 562.066406 L 361.449219 561.566406 L 358.242188 560.769531 L 345.261719 557.558594 C 340.980469 556.484375 336.898438 554.703125 332.726562 553.3125 L 326.5 551.085938 C 324.441406 550.324219 322.492188 549.230469 320.492188 548.359375 L 308.589844 542.792969 C 301.171875 538.195312 293.308594 534.1875 286.507812 528.734375 L 281.351562 524.761719 C 279.558594 523.539062 277.867188 522.191406 276.269531 520.71875 L 266.519531 512.074219 C 254.375 499.945312 243.121094 486.921875 234.8125 472.304688 L 231.515625 466.960938 C 230.457031 465.105469 229.660156 463.25 228.675781 461.398438 L 223.207031 450.265625 C 221.613281 446.464844 220.257812 442.570312 218.792969 438.765625 L 216.699219 433.035156 C 215.957031 431.179688 215.585938 429.121094 215.011719 427.191406 C 213.972656 423.277344 212.953125 419.382812 211.917969 415.503906 C 210.878906 411.628906 210.542969 407.65625 209.820312 403.761719 L 208.894531 397.917969 C 208.511719 395.988281 208.277344 394.039062 208.1875 392.074219 C 207.96875 388.179688 207.726562 384.300781 207.503906 380.445312 C 207.390625 378.402344 207.300781 376.382812 207.1875 374.378906 C 207.078125 372.375 207.316406 370.667969 207.390625 368.8125 C 207.515625 365.101562 207.640625 361.460938 207.761719 357.886719 C 208.234375 354.101562 208.695312 350.335938 209.152344 346.589844 C 209.375 344.734375 209.617188 342.878906 209.839844 341.027344 C 210.0625 339.171875 210.601562 337.445312 210.96875 335.664062 L 213.234375 325.074219 C 214.195312 321.621094 215.289062 318.246094 216.308594 314.871094 C 218.355469 308.269531 220.757812 301.800781 223.523438 295.464844 C 228.515625 284.164062 234.53125 273.4375 241.574219 263.285156 C 248.613281 253.132812 256.554688 243.738281 265.386719 235.105469 C 279.097656 221.707031 294.414062 210.503906 311.332031 201.492188 C 322.300781 195.898438 333.671875 191.304688 345.449219 187.710938 L 358.035156 184.277344 L 361.949219 202.085938 L 350.492188 205.015625 C 339.738281 208.105469 329.335938 212.105469 319.285156 217.019531 C 303.726562 225.003906 289.585938 235.003906 276.863281 247.015625 C 268.628906 254.804688 261.203125 263.304688 254.589844 272.515625 C 247.976562 281.726562 242.292969 291.476562 237.539062 301.773438 C 234.90625 307.558594 232.59375 313.46875 230.605469 319.507812 C 229.640625 322.605469 228.566406 325.703125 227.621094 328.78125 C 226.675781 331.863281 226.136719 335.257812 225.375 338.519531 C 225.007812 340.171875 224.636719 341.804688 224.246094 343.457031 C 223.855469 345.105469 223.875 346.832031 223.558594 348.484375 C 223.078125 351.804688 222.59375 355.160156 222.113281 358.519531 C 221.929688 362.128906 221.742188 365.769531 221.558594 369.445312 C 221.558594 371.300781 221.351562 373.152344 221.261719 375.007812 L 221.5 380.054688 C 221.648438 383.640625 221.796875 387.246094 221.945312 390.871094 C 221.992188 392.6875 222.179688 394.496094 222.503906 396.285156 L 223.300781 401.738281 C 223.910156 405.449219 224.152344 409.160156 225.152344 412.683594 C 226.15625 416.207031 227.007812 419.9375 227.859375 423.589844 C 228.363281 425.445312 228.660156 427.300781 229.324219 429.15625 L 231.179688 434.519531 C 232.496094 438.097656 233.664062 441.753906 235.09375 445.3125 C 236.519531 448.875 238.390625 452.289062 240.042969 455.8125 C 240.894531 457.558594 241.636719 459.375 242.601562 461.0625 L 245.605469 466.109375 C 253.132812 479.910156 263.496094 492.265625 274.714844 503.875 L 283.652344 512.148438 C 285.128906 513.554688 286.699219 514.847656 288.359375 516.027344 L 293.253906 519.738281 C 299.558594 525.023438 306.882812 528.863281 313.835938 533.351562 L 324.960938 538.917969 C 326.8125 539.808594 328.667969 540.773438 330.523438 541.589844 L 336.363281 543.796875 C 340.292969 545.167969 344.113281 546.929688 348.15625 548.007812 L 360.296875 551.234375 L 363.339844 552.050781 L 366.398438 552.550781 L 372.535156 553.554688 C 376.664062 554.371094 380.832031 554.914062 385.03125 555.1875 L 398.011719 555.945312 L 400.03125 555.945312 C 400.21875 555.945312 399.847656 555.945312 400.199219 555.945312 L 400.976562 555.945312 L 404.148438 555.816406 L 410.46875 555.558594 C 418.960938 555.558594 427.15625 553.792969 435.628906 552.738281 C 439.765625 551.902344 443.824219 550.753906 447.941406 549.769531 L 454.078125 548.230469 L 460.03125 546.113281 C 476.140625 541.03125 490.992188 532.757812 504.824219 523.484375 L 514.910156 516.0625 C 518.136719 513.449219 521.140625 510.5 524.183594 507.847656 L 528.796875 503.691406 L 533.007812 499.144531 C 535.769531 496.085938 538.679688 493.171875 541.296875 490.019531 C 546.191406 483.433594 551.511719 477.183594 555.480469 470.097656 L 558.667969 464.941406 C 559.789062 463.257812 560.777344 461.503906 561.632812 459.671875 L 566.957031 448.875 L 568.273438 446.1875 L 569.347656 443.382812 L 571.425781 437.820312 L 573.519531 432.253906 C 574.289062 430.449219 574.90625 428.59375 575.375 426.691406 C 577.226562 419.085938 579.710938 411.609375 580.582031 404.003906 C 581.15625 400.292969 581.917969 396.488281 582.324219 392.6875 C 582.734375 388.882812 582.769531 384.988281 582.992188 381.1875 L 583.328125 375.492188 C 583.328125 373.820312 583.214844 371.78125 583.179688 369.925781 C 583.03125 366.214844 582.902344 362.507812 582.753906 358.796875 C 581.632812 344.9375 578.992188 331.375 574.835938 318.109375 C 570.675781 304.839844 565.101562 292.199219 558.113281 280.179688 C 552.183594 270 545.339844 260.476562 537.574219 251.613281 C 529.8125 242.753906 521.273438 234.714844 511.964844 227.5 C 497.457031 216.382812 481.671875 207.554688 464.609375 201.007812 L 454.503906 197.449219 C 451.351562 196.261719 448.21875 195.742188 445.402344 194.945312 C 440.617188 193.550781 435.757812 192.480469 430.828125 191.734375 Z M 418.554688 189.785156 " fill-opacity="1" fill-rule="nonzero"/></g><g clip-path="url(#ae2e5ed1df)"><path fill="#000000" d="M 328.851562 230.671875 L 354.625 194.3125 L 318.285156 168.546875 L 344.632812 164.058594 L 380.972656 189.824219 L 355.21875 226.164062 Z M 328.851562 230.671875 " fill-opacity="1" fill-rule="nonzero"/></g><g transform="matrix(1, 0, 0, 1, 231, 701)"><g clip-path="url(#f4b3825868)"><g fill="#000000" fill-opacity="1"><g transform="translate(2.532551, 70.756961)"><g><path d="M 25.203125 0.703125 C 18.335938 0.703125 13.269531 -1.03125 10 -4.5 C 6.738281 -7.976562 5.109375 -12.722656 5.109375 -18.734375 L 5.109375 -54.15625 L 11.640625 -54.15625 L 11.640625 -18.734375 C 11.640625 -14.523438 12.710938 -11.203125 14.859375 -8.765625 C 17.015625 -6.328125 20.460938 -5.109375 25.203125 -5.109375 C 29.929688 -5.109375 33.367188 -6.328125 35.515625 -8.765625 C 37.671875 -11.203125 38.75 -14.523438 38.75 -18.734375 L 38.75 -54.15625 L 45.28125 -54.15625 L 45.28125 -18.734375 C 45.28125 -12.722656 43.644531 -7.976562 40.375 -4.5 C 37.113281 -1.03125 32.054688 0.703125 25.203125 0.703125 Z M 25.203125 0.703125 "/></g></g></g><g fill="#000000" fill-opacity="1"><g transform="translate(53.060592, 70.756961)"><g><path d="M 20.875 0.703125 C 15.851562 0.703125 11.789062 -0.488281 8.6875 -2.875 C 5.59375 -5.257812 3.710938 -8.515625 3.046875 -12.640625 L 9.375 -12.640625 C 9.894531 -10.273438 11.078125 -8.34375 12.921875 -6.84375 C 14.765625 -5.351562 17.4375 -4.609375 20.9375 -4.609375 C 23.59375 -4.609375 25.757812 -5.117188 27.4375 -6.140625 C 29.113281 -7.160156 29.953125 -8.660156 29.953125 -10.640625 C 29.953125 -12.296875 29.429688 -13.570312 28.390625 -14.46875 C 27.347656 -15.375 25.988281 -16.0625 24.3125 -16.53125 C 22.632812 -17.007812 20.820312 -17.4375 18.875 -17.8125 C 17.175781 -18.144531 15.484375 -18.523438 13.796875 -18.953125 C 12.117188 -19.378906 10.59375 -19.96875 9.21875 -20.71875 C 7.851562 -21.476562 6.753906 -22.5 5.921875 -23.78125 C 5.097656 -25.0625 4.6875 -26.691406 4.6875 -28.671875 C 4.6875 -31.140625 5.3125 -33.210938 6.5625 -34.890625 C 7.820312 -36.566406 9.539062 -37.832031 11.71875 -38.6875 C 13.894531 -39.539062 16.304688 -39.96875 18.953125 -39.96875 C 23.210938 -39.96875 26.757812 -38.863281 29.59375 -36.65625 C 32.4375 -34.457031 34.191406 -31.394531 34.859375 -27.46875 L 29.25 -27.46875 C 28.632812 -29.976562 27.414062 -31.800781 25.59375 -32.9375 C 23.769531 -34.070312 21.554688 -34.640625 18.953125 -34.640625 C 16.347656 -34.640625 14.320312 -34.15625 12.875 -33.1875 C 11.4375 -32.21875 10.71875 -30.878906 10.71875 -29.171875 C 10.71875 -27.796875 11.203125 -26.71875 12.171875 -25.9375 C 13.140625 -25.164062 14.40625 -24.578125 15.96875 -24.171875 C 17.53125 -23.765625 19.210938 -23.375 21.015625 -23 C 22.765625 -22.664062 24.523438 -22.273438 26.296875 -21.828125 C 28.078125 -21.378906 29.695312 -20.75 31.15625 -19.9375 C 32.625 -19.132812 33.796875 -18.046875 34.671875 -16.671875 C 35.546875 -15.304688 35.984375 -13.507812 35.984375 -11.28125 C 35.984375 -7.6875 34.671875 -4.789062 32.046875 -2.59375 C 29.421875 -0.394531 25.695312 0.703125 20.875 0.703125 Z M 20.875 0.703125 "/></g></g></g><g fill="#000000" fill-opacity="1"><g transform="translate(92.65982, 70.756961)"><g><path d="M 8.09375 -46 C 6.8125 -46 5.722656 -46.4375 4.828125 -47.3125 C 3.929688 -48.1875 3.484375 -49.238281 3.484375 -50.46875 C 3.484375 -51.695312 3.929688 -52.738281 4.828125 -53.59375 C 5.722656 -54.445312 6.8125 -54.875 8.09375 -54.875 C 9.375 -54.875 10.460938 -54.445312 11.359375 -53.59375 C 12.253906 -52.738281 12.703125 -51.695312 12.703125 -50.46875 C 12.703125 -49.238281 12.253906 -48.1875 11.359375 -47.3125 C 10.460938 -46.4375 9.375 -46 8.09375 -46 Z M 11.078125 0 L 5.046875 0 L 5.046875 -39.25 L 11.078125 -39.25 Z M 11.078125 0 "/></g></g></g><g fill="#000000" fill-opacity="1"><g transform="translate(108.840162, 70.756961)"><g><path d="M 11.078125 0 L 5.046875 0 L 5.046875 -39.25 L 11.078125 -39.25 L 11.078125 -33.15625 C 13.066406 -35.707031 14.96875 -37.476562 16.78125 -38.46875 C 18.601562 -39.46875 20.582031 -39.96875 22.71875 -39.96875 C 25.789062 -39.96875 28.25 -39.382812 30.09375 -38.21875 C 31.9375 -37.0625 33.332031 -35.582031 34.28125 -33.78125 C 35.226562 -32.03125 35.769531 -30.207031 35.90625 -28.3125 C 36.050781 -26.425781 36.125 -24.867188 36.125 -23.640625 L 36.125 0 L 30.09375 0 L 30.09375 -23.640625 C 30.09375 -27.804688 29.335938 -30.738281 27.828125 -32.4375 C 26.503906 -33.90625 24.492188 -34.640625 21.796875 -34.640625 C 20.179688 -34.640625 18.78125 -34.378906 17.59375 -33.859375 C 16.414062 -33.335938 15.425781 -32.628906 14.625 -31.734375 C 13.34375 -30.410156 12.429688 -28.585938 11.890625 -26.265625 C 11.347656 -23.941406 11.078125 -20.769531 11.078125 -16.75 Z M 11.078125 0 "/></g></g></g><g fill="#000000" fill-opacity="1"><g transform="translate(149.787753, 70.756961)"><g><path d="M 22.359375 15.609375 C 19.710938 15.609375 17.144531 15.226562 14.65625 14.46875 C 12.175781 13.71875 10.046875 12.441406 8.265625 10.640625 C 6.492188 8.847656 5.347656 6.363281 4.828125 3.1875 L 11 3.1875 C 11.613281 5.507812 12.84375 7.273438 14.6875 8.484375 C 16.539062 9.691406 19.078125 10.296875 22.296875 10.296875 C 26.410156 10.296875 29.390625 9.359375 31.234375 7.484375 C 33.078125 5.617188 34 3.050781 34 -0.21875 L 34 -6.109375 C 31.96875 -3.503906 29.976562 -1.71875 28.03125 -0.75 C 26.09375 0.21875 23.800781 0.703125 21.15625 0.703125 C 17.65625 0.703125 14.585938 -0.144531 11.953125 -1.84375 C 9.328125 -3.550781 7.289062 -5.929688 5.84375 -8.984375 C 4.40625 -12.035156 3.6875 -15.523438 3.6875 -19.453125 C 3.6875 -23.515625 4.40625 -27.082031 5.84375 -30.15625 C 7.289062 -33.238281 9.316406 -35.644531 11.921875 -37.375 C 14.523438 -39.101562 17.578125 -39.96875 21.078125 -39.96875 C 23.828125 -39.96875 26.171875 -39.46875 28.109375 -38.46875 C 30.046875 -37.476562 32.007812 -35.707031 34 -33.15625 L 34 -39.25 L 40.03125 -39.25 L 40.03125 -1.34375 C 40.03125 2.914062 39.269531 6.273438 37.75 8.734375 C 36.238281 11.191406 34.160156 12.953125 31.515625 14.015625 C 28.867188 15.078125 25.816406 15.609375 22.359375 15.609375 Z M 21.71875 -4.609375 C 24.175781 -4.609375 26.335938 -5.257812 28.203125 -6.5625 C 30.078125 -7.863281 31.546875 -9.648438 32.609375 -11.921875 C 33.679688 -14.191406 34.21875 -16.769531 34.21875 -19.65625 C 34.21875 -22.550781 33.671875 -25.117188 32.578125 -27.359375 C 31.492188 -29.609375 30.015625 -31.382812 28.140625 -32.6875 C 26.273438 -33.988281 24.132812 -34.640625 21.71875 -34.640625 C 19.257812 -34.640625 17.128906 -33.976562 15.328125 -32.65625 C 13.535156 -31.332031 12.148438 -29.546875 11.171875 -27.296875 C 10.203125 -25.046875 9.71875 -22.5 9.71875 -19.65625 C 9.71875 -16.820312 10.203125 -14.269531 11.171875 -12 C 12.148438 -9.726562 13.535156 -7.925781 15.328125 -6.59375 C 17.128906 -5.269531 19.257812 -4.609375 21.71875 -4.609375 Z M 21.71875 -4.609375 "/></g></g></g><g fill="#000000" fill-opacity="1"><g transform="translate(194.922348, 70.756961)"><g><path d="M 8.59375 0.703125 C 7.40625 0.703125 6.382812 0.289062 5.53125 -0.53125 C 4.6875 -1.363281 4.265625 -2.367188 4.265625 -3.546875 C 4.265625 -4.679688 4.6875 -5.648438 5.53125 -6.453125 C 6.382812 -7.265625 7.40625 -7.671875 8.59375 -7.671875 C 9.675781 -7.671875 10.617188 -7.253906 11.421875 -6.421875 C 12.234375 -5.597656 12.640625 -4.640625 12.640625 -3.546875 C 12.640625 -2.367188 12.234375 -1.363281 11.421875 -0.53125 C 10.617188 0.289062 9.675781 0.703125 8.59375 0.703125 Z M 8.59375 0.703125 "/></g></g></g><g fill="#000000" fill-opacity="1"><g transform="translate(211.883309, 70.756961)"><g><path d="M 20.4375 0 L 5.609375 0 L 5.609375 -54.15625 L 20.515625 -54.15625 C 29.554688 -54.15625 36.453125 -51.789062 41.203125 -47.0625 C 45.960938 -42.332031 48.34375 -35.613281 48.34375 -26.90625 C 48.34375 -18.34375 45.953125 -11.71875 41.171875 -7.03125 C 36.390625 -2.34375 29.476562 0 20.4375 0 Z M 12.140625 -48.265625 L 12.140625 -5.890625 L 20.375 -5.890625 C 23.207031 -5.890625 25.914062 -6.1875 28.5 -6.78125 C 31.082031 -7.375 33.363281 -8.4375 35.34375 -9.96875 C 37.332031 -11.507812 38.90625 -13.648438 40.0625 -16.390625 C 41.226562 -19.140625 41.8125 -22.644531 41.8125 -26.90625 C 41.8125 -32.207031 40.898438 -36.40625 39.078125 -39.5 C 37.253906 -42.601562 34.742188 -44.835938 31.546875 -46.203125 C 28.359375 -47.578125 24.65625 -48.265625 20.4375 -48.265625 Z M 12.140625 -48.265625 "/></g></g></g><g fill="#000000" fill-opacity="1"><g transform="translate(263.901653, 70.756961)"><g><path d="M 22.5 0.703125 C 18.757812 0.703125 15.445312 -0.179688 12.5625 -1.953125 C 9.675781 -3.722656 7.425781 -6.132812 5.8125 -9.1875 C 4.207031 -12.238281 3.40625 -15.679688 3.40625 -19.515625 C 3.40625 -23.066406 4.140625 -26.40625 5.609375 -29.53125 C 7.078125 -32.65625 9.226562 -35.175781 12.0625 -37.09375 C 14.90625 -39.007812 18.335938 -39.96875 22.359375 -39.96875 C 25.671875 -39.96875 28.757812 -39.234375 31.625 -37.765625 C 34.488281 -36.296875 36.816406 -34.117188 38.609375 -31.234375 C 40.410156 -28.347656 41.3125 -24.796875 41.3125 -20.578125 L 41.3125 -18.453125 L 9.375 -18.453125 C 9.46875 -17.078125 9.726562 -15.773438 10.15625 -14.546875 C 11.144531 -11.523438 12.726562 -9.113281 14.90625 -7.3125 C 17.082031 -5.507812 19.59375 -4.609375 22.4375 -4.609375 C 25.414062 -4.609375 27.894531 -5.398438 29.875 -6.984375 C 31.863281 -8.578125 33.285156 -10.460938 34.140625 -12.640625 L 40.609375 -12.640625 C 39.796875 -10.171875 38.582031 -7.929688 36.96875 -5.921875 C 35.363281 -3.910156 33.367188 -2.300781 30.984375 -1.09375 C 28.597656 0.101562 25.769531 0.703125 22.5 0.703125 Z M 9.9375 -23.78125 L 34.859375 -23.78125 C 34.804688 -24.445312 34.707031 -25.109375 34.5625 -25.765625 C 34.425781 -26.429688 34.238281 -27.046875 34 -27.609375 C 32.957031 -29.878906 31.40625 -31.617188 29.34375 -32.828125 C 27.289062 -34.035156 25.007812 -34.640625 22.5 -34.640625 C 19.894531 -34.640625 17.609375 -34.023438 15.640625 -32.796875 C 13.679688 -31.566406 12.160156 -29.835938 11.078125 -27.609375 C 10.785156 -26.992188 10.546875 -26.351562 10.359375 -25.6875 C 10.171875 -25.03125 10.03125 -24.394531 9.9375 -23.78125 Z M 9.9375 -23.78125 "/></g></g></g><g fill="#000000" fill-opacity="1"><g transform="translate(308.610471, 70.756961)"><g><path d="M 20.875 0 L 15.90625 0 L 1.421875 -39.25 L 8.09375 -39.25 L 18.390625 -10.21875 L 28.8125 -39.25 L 35.421875 -39.25 Z M 20.875 0 "/></g></g></g></g></g></svg>
