<svg xmlns="http://www.w3.org/2000/svg" xmlns:xlink="http://www.w3.org/1999/xlink" width="1080" zoomAndPan="magnify" viewBox="0 0 810 1012.49997" height="1350" preserveAspectRatio="xMidYMid meet" version="1.0"><defs><g/><clipPath id="ed34c9efc2"><path d="M 0.199219 0 L 809.800781 0 L 809.800781 1012 L 0.199219 1012 Z M 0.199219 0 " clip-rule="nonzero"/></clipPath><clipPath id="43bd47f47a"><path d="M 195.109375 182 L 577 182 L 577 563.757812 L 195.109375 563.757812 Z M 195.109375 182 " clip-rule="nonzero"/></clipPath><clipPath id="0068d57d1c"><path d="M 307 162.703125 L 370 162.703125 L 370 230 L 307 230 Z M 307 162.703125 " clip-rule="nonzero"/></clipPath><clipPath id="f420dadddf"><path d="M 224.339844 201.203125 L 548.179688 201.203125 L 548.179688 525.042969 L 224.339844 525.042969 Z M 224.339844 201.203125 " clip-rule="nonzero"/></clipPath><clipPath id="4df1b2828d"><rect x="0" width="347" y="0" height="89"/></clipPath></defs><g clip-path="url(#ed34c9efc2)"><path fill="#ffffff" d="M 0.199219 0 L 809.800781 0 L 809.800781 1012 L 0.199219 1012 Z M 0.199219 0 " fill-opacity="1" fill-rule="nonzero"/><path fill="#000000" d="M 0.199219 0 L 809.800781 0 L 809.800781 1012 L 0.199219 1012 Z M 0.199219 0 " fill-opacity="1" fill-rule="nonzero"/></g><g clip-path="url(#43bd47f47a)"><path fill="#ffffff" d="M 407.296875 188.417969 L 419.605469 190.125 C 424.554688 190.792969 429.4375 191.78125 434.253906 193.089844 C 437.089844 193.851562 440.261719 194.316406 443.523438 195.464844 L 453.71875 198.894531 C 471.003906 205.226562 487.035156 213.878906 501.8125 224.851562 C 511.351562 231.992188 520.121094 239.984375 528.121094 248.820312 C 536.121094 257.652344 543.203125 267.171875 549.367188 277.375 C 553.027344 283.410156 556.335938 289.628906 559.296875 296.035156 C 562.261719 302.441406 564.855469 308.992188 567.085938 315.691406 C 569.3125 322.386719 571.160156 329.1875 572.628906 336.089844 C 574.09375 342.996094 575.171875 349.957031 575.859375 356.984375 C 576.0625 360.691406 576.285156 364.527344 576.492188 368.328125 C 576.492188 370.183594 576.785156 372.039062 576.730469 374.167969 L 576.492188 379.878906 C 576.324219 383.679688 576.175781 387.519531 576.007812 391.375 C 575.839844 395.230469 574.953125 399.179688 574.433594 403.128906 C 573.617188 411.101562 571.316406 418.757812 569.425781 426.636719 C 568.957031 428.617188 568.335938 430.550781 567.574219 432.441406 L 565.515625 438.1875 L 563.457031 443.972656 L 562.398438 446.863281 L 561.082031 449.664062 C 559.328125 453.371094 557.5625 457.078125 555.78125 460.785156 C 554.933594 462.71875 553.945312 464.570312 552.816406 466.347656 L 549.609375 471.742188 C 545.601562 479.160156 540.226562 485.6875 535.257812 492.582031 C 532.605469 495.882812 529.695312 498.960938 526.824219 502.1875 L 522.539062 506.96875 L 517.8125 511.253906 C 514.625 514.144531 511.546875 517.183594 508.226562 519.949219 L 497.882812 527.9375 C 483.660156 537.820312 468.21875 546.683594 451.53125 552.28125 L 445.339844 554.597656 L 438.945312 556.324219 C 434.679688 557.417969 430.414062 558.675781 426.113281 559.640625 C 417.363281 560.902344 408.667969 562.902344 399.789062 563.015625 L 393.132812 563.40625 L 389.8125 563.589844 L 386.308594 563.589844 L 373.332031 563.035156 C 368.894531 562.804688 364.488281 562.3125 360.113281 561.550781 L 353.53125 560.492188 L 350.195312 559.992188 L 346.988281 559.195312 L 334.007812 555.988281 C 329.726562 554.914062 325.648438 553.132812 321.476562 551.742188 L 315.246094 549.519531 C 313.1875 548.757812 311.242188 547.664062 309.238281 546.792969 L 297.335938 541.230469 C 289.921875 536.632812 282.0625 532.628906 275.257812 527.179688 L 270.101562 523.210938 C 268.3125 521.988281 266.617188 520.640625 265.023438 519.167969 L 255.269531 510.527344 C 243.128906 498.402344 231.875 485.390625 223.566406 470.78125 L 220.269531 465.441406 C 219.210938 463.585938 218.414062 461.734375 217.429688 459.878906 L 211.960938 448.753906 C 210.367188 444.953125 209.015625 441.0625 207.550781 437.261719 L 205.453125 431.53125 C 204.714844 429.675781 204.34375 427.621094 203.765625 425.691406 C 202.730469 421.78125 201.710938 417.886719 200.671875 414.011719 C 199.632812 410.136719 199.300781 406.167969 198.578125 402.277344 L 197.648438 396.4375 C 197.265625 394.507812 197.03125 392.558594 196.945312 390.59375 C 196.722656 386.703125 196.480469 382.828125 196.257812 378.972656 C 196.148438 376.933594 196.054688 374.910156 195.945312 372.910156 C 195.832031 370.90625 196.074219 369.199219 196.148438 367.347656 C 196.269531 363.640625 196.394531 360 196.519531 356.425781 C 196.988281 352.644531 197.453125 348.882812 197.910156 345.136719 C 198.132812 343.28125 198.371094 341.429688 198.59375 339.574219 C 198.816406 337.71875 199.355469 335.996094 199.726562 334.214844 L 201.988281 323.628906 C 202.953125 320.179688 204.046875 316.808594 205.066406 313.433594 C 207.109375 306.835938 209.511719 300.371094 212.277344 294.039062 C 217.269531 282.746094 223.285156 272.023438 230.328125 261.875 C 237.367188 251.730469 245.304688 242.34375 254.140625 233.710938 C 267.851562 220.320312 283.164062 209.125 300.082031 200.117188 C 311.046875 194.527344 322.417969 189.933594 334.195312 186.34375 L 346.78125 182.914062 L 350.695312 200.710938 L 339.238281 203.640625 C 328.484375 206.726562 318.085938 210.722656 308.035156 215.636719 C 292.476562 223.617188 278.335938 233.613281 265.617188 245.613281 C 257.382812 253.402344 249.957031 261.898438 243.34375 271.101562 C 236.730469 280.308594 231.046875 290.054688 226.292969 300.34375 C 223.660156 306.125 221.347656 312.035156 219.359375 318.066406 C 218.394531 321.164062 217.320312 324.261719 216.375 327.339844 C 215.429688 330.414062 214.890625 333.808594 214.132812 337.070312 C 213.761719 338.722656 213.390625 340.351562 213 342.003906 C 212.609375 343.652344 212.628906 345.378906 212.3125 347.027344 C 211.832031 350.347656 211.351562 353.703125 210.867188 357.058594 C 210.683594 360.667969 210.496094 364.304688 210.3125 367.976562 C 210.3125 369.832031 210.109375 371.683594 210.015625 373.539062 L 210.257812 378.582031 C 210.40625 382.167969 210.554688 385.769531 210.703125 389.390625 C 210.746094 391.210938 210.933594 393.015625 211.257812 394.804688 L 212.054688 400.253906 C 212.667969 403.960938 212.90625 407.671875 213.910156 411.191406 C 214.910156 414.714844 215.761719 418.441406 216.617188 422.09375 C 217.117188 423.949219 217.414062 425.800781 218.082031 427.65625 L 219.933594 433.015625 C 221.25 436.59375 222.417969 440.246094 223.847656 443.804688 C 225.273438 447.363281 227.144531 450.777344 228.796875 454.296875 C 229.648438 456.039062 230.390625 457.859375 231.355469 459.546875 L 234.359375 464.585938 C 241.886719 478.382812 252.25 490.730469 263.464844 502.335938 L 272.402344 510.601562 C 273.878906 512.007812 275.449219 513.296875 277.109375 514.476562 L 282.003906 518.1875 C 288.308594 523.46875 295.632812 527.308594 302.585938 531.792969 L 313.707031 537.355469 C 315.5625 538.246094 317.417969 539.210938 319.269531 540.027344 L 325.109375 542.230469 C 329.039062 543.605469 332.859375 545.367188 336.902344 546.441406 L 349.042969 549.667969 L 352.085938 550.480469 L 355.144531 550.984375 L 361.28125 551.984375 C 365.410156 552.800781 369.574219 553.34375 373.777344 553.617188 L 386.753906 554.375 L 388.777344 554.375 C 388.960938 554.375 388.589844 554.375 388.941406 554.375 L 389.722656 554.375 L 392.890625 554.246094 L 399.214844 553.988281 C 407.703125 553.988281 415.898438 552.226562 424.371094 551.167969 C 428.507812 550.335938 432.566406 549.183594 436.683594 548.203125 L 442.820312 546.664062 L 448.769531 544.550781 C 464.882812 539.46875 479.730469 531.199219 493.5625 521.929688 L 503.648438 514.515625 C 506.875 511.902344 509.878906 508.953125 512.917969 506.300781 L 517.535156 502.148438 L 521.742188 497.605469 C 524.503906 494.546875 527.414062 491.636719 530.03125 488.484375 C 534.925781 481.902344 540.246094 475.65625 544.210938 468.574219 L 547.402344 463.417969 C 548.523438 461.738281 549.511719 459.984375 550.367188 458.15625 L 555.6875 447.363281 L 557.003906 444.675781 L 558.082031 441.875 L 560.15625 436.316406 L 562.253906 430.753906 C 563.023438 428.949219 563.640625 427.09375 564.105469 425.191406 C 565.960938 417.589844 568.445312 410.117188 569.316406 402.515625 C 569.890625 398.808594 570.652344 395.007812 571.058594 391.207031 C 571.464844 387.40625 571.503906 383.511719 571.726562 379.710938 L 572.058594 374.019531 C 572.058594 372.351562 571.949219 370.3125 571.910156 368.460938 C 571.761719 364.75 571.632812 361.042969 571.484375 357.335938 C 570.363281 343.484375 567.726562 329.929688 563.566406 316.667969 C 559.410156 303.410156 553.835938 290.773438 546.84375 278.765625 C 540.917969 268.585938 534.074219 259.070312 526.3125 250.210938 C 518.546875 241.355469 510.011719 233.320312 500.699219 226.109375 C 486.195312 215.003906 470.410156 206.175781 453.347656 199.636719 L 443.246094 196.078125 C 440.09375 194.890625 436.960938 194.371094 434.140625 193.574219 C 429.355469 192.179688 424.5 191.109375 419.570312 190.367188 Z M 407.296875 188.417969 " fill-opacity="1" fill-rule="nonzero"/></g><g clip-path="url(#0068d57d1c)"><path fill="#ffffff" d="M 317.601562 229.28125 L 343.371094 192.941406 L 307.035156 167.191406 L 333.378906 162.703125 L 369.714844 188.457031 L 343.964844 224.777344 Z M 317.601562 229.28125 " fill-opacity="1" fill-rule="nonzero"/></g><g clip-path="url(#f420dadddf)"><path fill="#ffffff" d="M 548.152344 363.109375 C 426.722656 385.464844 408.601562 403.585938 386.246094 525.015625 C 363.890625 403.585938 345.769531 385.464844 224.339844 363.109375 C 345.769531 340.753906 363.890625 322.632812 386.246094 201.203125 C 408.601562 322.632812 426.722656 340.753906 548.152344 363.109375 Z M 548.152344 363.109375 " fill-opacity="1" fill-rule="nonzero"/></g><g transform="matrix(1, 0, 0, 1, 231, 708)"><g clip-path="url(#4df1b2828d)"><g fill="#ffffff" fill-opacity="1"><g transform="translate(2.532551, 70.319793)"><g><path d="M 25.203125 0.703125 C 18.335938 0.703125 13.269531 -1.03125 10 -4.5 C 6.738281 -7.976562 5.109375 -12.722656 5.109375 -18.734375 L 5.109375 -54.15625 L 11.640625 -54.15625 L 11.640625 -18.734375 C 11.640625 -14.523438 12.710938 -11.203125 14.859375 -8.765625 C 17.015625 -6.328125 20.460938 -5.109375 25.203125 -5.109375 C 29.929688 -5.109375 33.367188 -6.328125 35.515625 -8.765625 C 37.671875 -11.203125 38.75 -14.523438 38.75 -18.734375 L 38.75 -54.15625 L 45.28125 -54.15625 L 45.28125 -18.734375 C 45.28125 -12.722656 43.644531 -7.976562 40.375 -4.5 C 37.113281 -1.03125 32.054688 0.703125 25.203125 0.703125 Z M 25.203125 0.703125 "/></g></g></g><g fill="#ffffff" fill-opacity="1"><g transform="translate(53.060592, 70.319793)"><g><path d="M 20.875 0.703125 C 15.851562 0.703125 11.789062 -0.488281 8.6875 -2.875 C 5.59375 -5.257812 3.710938 -8.515625 3.046875 -12.640625 L 9.375 -12.640625 C 9.894531 -10.273438 11.078125 -8.34375 12.921875 -6.84375 C 14.765625 -5.351562 17.4375 -4.609375 20.9375 -4.609375 C 23.59375 -4.609375 25.757812 -5.117188 27.4375 -6.140625 C 29.113281 -7.160156 29.953125 -8.660156 29.953125 -10.640625 C 29.953125 -12.296875 29.429688 -13.570312 28.390625 -14.46875 C 27.347656 -15.375 25.988281 -16.0625 24.3125 -16.53125 C 22.632812 -17.007812 20.820312 -17.4375 18.875 -17.8125 C 17.175781 -18.144531 15.484375 -18.523438 13.796875 -18.953125 C 12.117188 -19.378906 10.59375 -19.96875 9.21875 -20.71875 C 7.851562 -21.476562 6.753906 -22.5 5.921875 -23.78125 C 5.097656 -25.0625 4.6875 -26.691406 4.6875 -28.671875 C 4.6875 -31.140625 5.3125 -33.210938 6.5625 -34.890625 C 7.820312 -36.566406 9.539062 -37.832031 11.71875 -38.6875 C 13.894531 -39.539062 16.304688 -39.96875 18.953125 -39.96875 C 23.210938 -39.96875 26.757812 -38.863281 29.59375 -36.65625 C 32.4375 -34.457031 34.191406 -31.394531 34.859375 -27.46875 L 29.25 -27.46875 C 28.632812 -29.976562 27.414062 -31.800781 25.59375 -32.9375 C 23.769531 -34.070312 21.554688 -34.640625 18.953125 -34.640625 C 16.347656 -34.640625 14.320312 -34.15625 12.875 -33.1875 C 11.4375 -32.21875 10.71875 -30.878906 10.71875 -29.171875 C 10.71875 -27.796875 11.203125 -26.71875 12.171875 -25.9375 C 13.140625 -25.164062 14.40625 -24.578125 15.96875 -24.171875 C 17.53125 -23.765625 19.210938 -23.375 21.015625 -23 C 22.765625 -22.664062 24.523438 -22.273438 26.296875 -21.828125 C 28.078125 -21.378906 29.695312 -20.75 31.15625 -19.9375 C 32.625 -19.132812 33.796875 -18.046875 34.671875 -16.671875 C 35.546875 -15.304688 35.984375 -13.507812 35.984375 -11.28125 C 35.984375 -7.6875 34.671875 -4.789062 32.046875 -2.59375 C 29.421875 -0.394531 25.695312 0.703125 20.875 0.703125 Z M 20.875 0.703125 "/></g></g></g><g fill="#ffffff" fill-opacity="1"><g transform="translate(92.65982, 70.319793)"><g><path d="M 8.09375 -46 C 6.8125 -46 5.722656 -46.4375 4.828125 -47.3125 C 3.929688 -48.1875 3.484375 -49.238281 3.484375 -50.46875 C 3.484375 -51.695312 3.929688 -52.738281 4.828125 -53.59375 C 5.722656 -54.445312 6.8125 -54.875 8.09375 -54.875 C 9.375 -54.875 10.460938 -54.445312 11.359375 -53.59375 C 12.253906 -52.738281 12.703125 -51.695312 12.703125 -50.46875 C 12.703125 -49.238281 12.253906 -48.1875 11.359375 -47.3125 C 10.460938 -46.4375 9.375 -46 8.09375 -46 Z M 11.078125 0 L 5.046875 0 L 5.046875 -39.25 L 11.078125 -39.25 Z M 11.078125 0 "/></g></g></g><g fill="#ffffff" fill-opacity="1"><g transform="translate(108.840162, 70.319793)"><g><path d="M 11.078125 0 L 5.046875 0 L 5.046875 -39.25 L 11.078125 -39.25 L 11.078125 -33.15625 C 13.066406 -35.707031 14.96875 -37.476562 16.78125 -38.46875 C 18.601562 -39.46875 20.582031 -39.96875 22.71875 -39.96875 C 25.789062 -39.96875 28.25 -39.382812 30.09375 -38.21875 C 31.9375 -37.0625 33.332031 -35.582031 34.28125 -33.78125 C 35.226562 -32.03125 35.769531 -30.207031 35.90625 -28.3125 C 36.050781 -26.425781 36.125 -24.867188 36.125 -23.640625 L 36.125 0 L 30.09375 0 L 30.09375 -23.640625 C 30.09375 -27.804688 29.335938 -30.738281 27.828125 -32.4375 C 26.503906 -33.90625 24.492188 -34.640625 21.796875 -34.640625 C 20.179688 -34.640625 18.78125 -34.378906 17.59375 -33.859375 C 16.414062 -33.335938 15.425781 -32.628906 14.625 -31.734375 C 13.34375 -30.410156 12.429688 -28.585938 11.890625 -26.265625 C 11.347656 -23.941406 11.078125 -20.769531 11.078125 -16.75 Z M 11.078125 0 "/></g></g></g><g fill="#ffffff" fill-opacity="1"><g transform="translate(149.787753, 70.319793)"><g><path d="M 22.359375 15.609375 C 19.710938 15.609375 17.144531 15.226562 14.65625 14.46875 C 12.175781 13.71875 10.046875 12.441406 8.265625 10.640625 C 6.492188 8.847656 5.347656 6.363281 4.828125 3.1875 L 11 3.1875 C 11.613281 5.507812 12.84375 7.273438 14.6875 8.484375 C 16.539062 9.691406 19.078125 10.296875 22.296875 10.296875 C 26.410156 10.296875 29.390625 9.359375 31.234375 7.484375 C 33.078125 5.617188 34 3.050781 34 -0.21875 L 34 -6.109375 C 31.96875 -3.503906 29.976562 -1.71875 28.03125 -0.75 C 26.09375 0.21875 23.800781 0.703125 21.15625 0.703125 C 17.65625 0.703125 14.585938 -0.144531 11.953125 -1.84375 C 9.328125 -3.550781 7.289062 -5.929688 5.84375 -8.984375 C 4.40625 -12.035156 3.6875 -15.523438 3.6875 -19.453125 C 3.6875 -23.515625 4.40625 -27.082031 5.84375 -30.15625 C 7.289062 -33.238281 9.316406 -35.644531 11.921875 -37.375 C 14.523438 -39.101562 17.578125 -39.96875 21.078125 -39.96875 C 23.828125 -39.96875 26.171875 -39.46875 28.109375 -38.46875 C 30.046875 -37.476562 32.007812 -35.707031 34 -33.15625 L 34 -39.25 L 40.03125 -39.25 L 40.03125 -1.34375 C 40.03125 2.914062 39.269531 6.273438 37.75 8.734375 C 36.238281 11.191406 34.160156 12.953125 31.515625 14.015625 C 28.867188 15.078125 25.816406 15.609375 22.359375 15.609375 Z M 21.71875 -4.609375 C 24.175781 -4.609375 26.335938 -5.257812 28.203125 -6.5625 C 30.078125 -7.863281 31.546875 -9.648438 32.609375 -11.921875 C 33.679688 -14.191406 34.21875 -16.769531 34.21875 -19.65625 C 34.21875 -22.550781 33.671875 -25.117188 32.578125 -27.359375 C 31.492188 -29.609375 30.015625 -31.382812 28.140625 -32.6875 C 26.273438 -33.988281 24.132812 -34.640625 21.71875 -34.640625 C 19.257812 -34.640625 17.128906 -33.976562 15.328125 -32.65625 C 13.535156 -31.332031 12.148438 -29.546875 11.171875 -27.296875 C 10.203125 -25.046875 9.71875 -22.5 9.71875 -19.65625 C 9.71875 -16.820312 10.203125 -14.269531 11.171875 -12 C 12.148438 -9.726562 13.535156 -7.925781 15.328125 -6.59375 C 17.128906 -5.269531 19.257812 -4.609375 21.71875 -4.609375 Z M 21.71875 -4.609375 "/></g></g></g><g fill="#ffffff" fill-opacity="1"><g transform="translate(194.922348, 70.319793)"><g><path d="M 8.59375 0.703125 C 7.40625 0.703125 6.382812 0.289062 5.53125 -0.53125 C 4.6875 -1.363281 4.265625 -2.367188 4.265625 -3.546875 C 4.265625 -4.679688 4.6875 -5.648438 5.53125 -6.453125 C 6.382812 -7.265625 7.40625 -7.671875 8.59375 -7.671875 C 9.675781 -7.671875 10.617188 -7.253906 11.421875 -6.421875 C 12.234375 -5.597656 12.640625 -4.640625 12.640625 -3.546875 C 12.640625 -2.367188 12.234375 -1.363281 11.421875 -0.53125 C 10.617188 0.289062 9.675781 0.703125 8.59375 0.703125 Z M 8.59375 0.703125 "/></g></g></g><g fill="#ffffff" fill-opacity="1"><g transform="translate(211.883309, 70.319793)"><g><path d="M 20.4375 0 L 5.609375 0 L 5.609375 -54.15625 L 20.515625 -54.15625 C 29.554688 -54.15625 36.453125 -51.789062 41.203125 -47.0625 C 45.960938 -42.332031 48.34375 -35.613281 48.34375 -26.90625 C 48.34375 -18.34375 45.953125 -11.71875 41.171875 -7.03125 C 36.390625 -2.34375 29.476562 0 20.4375 0 Z M 12.140625 -48.265625 L 12.140625 -5.890625 L 20.375 -5.890625 C 23.207031 -5.890625 25.914062 -6.1875 28.5 -6.78125 C 31.082031 -7.375 33.363281 -8.4375 35.34375 -9.96875 C 37.332031 -11.507812 38.90625 -13.648438 40.0625 -16.390625 C 41.226562 -19.140625 41.8125 -22.644531 41.8125 -26.90625 C 41.8125 -32.207031 40.898438 -36.40625 39.078125 -39.5 C 37.253906 -42.601562 34.742188 -44.835938 31.546875 -46.203125 C 28.359375 -47.578125 24.65625 -48.265625 20.4375 -48.265625 Z M 12.140625 -48.265625 "/></g></g></g><g fill="#ffffff" fill-opacity="1"><g transform="translate(263.901653, 70.319793)"><g><path d="M 22.5 0.703125 C 18.757812 0.703125 15.445312 -0.179688 12.5625 -1.953125 C 9.675781 -3.722656 7.425781 -6.132812 5.8125 -9.1875 C 4.207031 -12.238281 3.40625 -15.679688 3.40625 -19.515625 C 3.40625 -23.066406 4.140625 -26.40625 5.609375 -29.53125 C 7.078125 -32.65625 9.226562 -35.175781 12.0625 -37.09375 C 14.90625 -39.007812 18.335938 -39.96875 22.359375 -39.96875 C 25.671875 -39.96875 28.757812 -39.234375 31.625 -37.765625 C 34.488281 -36.296875 36.816406 -34.117188 38.609375 -31.234375 C 40.410156 -28.347656 41.3125 -24.796875 41.3125 -20.578125 L 41.3125 -18.453125 L 9.375 -18.453125 C 9.46875 -17.078125 9.726562 -15.773438 10.15625 -14.546875 C 11.144531 -11.523438 12.726562 -9.113281 14.90625 -7.3125 C 17.082031 -5.507812 19.59375 -4.609375 22.4375 -4.609375 C 25.414062 -4.609375 27.894531 -5.398438 29.875 -6.984375 C 31.863281 -8.578125 33.285156 -10.460938 34.140625 -12.640625 L 40.609375 -12.640625 C 39.796875 -10.171875 38.582031 -7.929688 36.96875 -5.921875 C 35.363281 -3.910156 33.367188 -2.300781 30.984375 -1.09375 C 28.597656 0.101562 25.769531 0.703125 22.5 0.703125 Z M 9.9375 -23.78125 L 34.859375 -23.78125 C 34.804688 -24.445312 34.707031 -25.109375 34.5625 -25.765625 C 34.425781 -26.429688 34.238281 -27.046875 34 -27.609375 C 32.957031 -29.878906 31.40625 -31.617188 29.34375 -32.828125 C 27.289062 -34.035156 25.007812 -34.640625 22.5 -34.640625 C 19.894531 -34.640625 17.609375 -34.023438 15.640625 -32.796875 C 13.679688 -31.566406 12.160156 -29.835938 11.078125 -27.609375 C 10.785156 -26.992188 10.546875 -26.351562 10.359375 -25.6875 C 10.171875 -25.03125 10.03125 -24.394531 9.9375 -23.78125 Z M 9.9375 -23.78125 "/></g></g></g><g fill="#ffffff" fill-opacity="1"><g transform="translate(308.610471, 70.319793)"><g><path d="M 20.875 0 L 15.90625 0 L 1.421875 -39.25 L 8.09375 -39.25 L 18.390625 -10.21875 L 28.8125 -39.25 L 35.421875 -39.25 Z M 20.875 0 "/></g></g></g></g></g></svg>
